<?xml version="1.0" standalone="no"?>
<!DOCTYPE svg PUBLIC "-//W3C//DTD SVG 20010904//EN"
 "http://www.w3.org/TR/2001/REC-SVG-20010904/DTD/svg10.dtd">
<svg version="1.0" xmlns="http://www.w3.org/2000/svg"
 width="1180.000000pt" height="1180.000000pt" viewBox="0 0 1180.000000 1180.000000"
 preserveAspectRatio="xMidYMid meet">
<metadata>
Created by potrace 1.11, written by Peter Selinger 2001-2013
</metadata>
<g transform="translate(0.000000,1180.000000) scale(0.100000,-0.100000)"
fill="#000000" stroke="none">
<path d="M5863 9803 c-17 -43 -189 -509 -383 -1035 -195 -527 -356 -958 -359
-958 -3 1 -260 291 -571 645 -311 354 -568 644 -572 644 -12 1 -9 -170 16
-979 12 -404 21 -736 20 -738 -1 -2 -447 206 -991 461 -543 255 -990 463 -992
461 -2 -2 261 -566 584 -1254 323 -688 585 -1253 584 -1254 -2 -2 -301 20
-664 49 -363 29 -662 50 -665 48 -3 -2 130 -136 295 -296 165 -160 382 -372
482 -471 l183 -181 -690 -249 c-380 -137 -690 -252 -690 -256 0 -3 208 -81
463 -173 254 -91 1004 -362 1666 -601 l1204 -435 506 499 506 498 3 -1164 2
-1164 95 0 95 0 2 1165 3 1165 507 -500 c496 -488 508 -499 535 -489 16 6 469
170 1008 364 539 194 1268 458 1620 585 352 128 648 234 658 237 9 3 17 9 17
13 0 10 26 1 -722 271 -357 129 -648 237 -648 240 0 3 216 216 481 473 264
258 479 470 477 471 -2 2 -300 -21 -663 -50 -363 -29 -662 -51 -664 -49 -2 2
260 565 582 1251 322 687 582 1249 577 1251 -4 2 -450 -204 -990 -458 -540
-254 -983 -460 -985 -458 -1 2 8 354 21 783 26 874 27 935 17 935 -5 -1 -262
-290 -573 -645 -311 -354 -569 -643 -573 -641 -5 1 -180 463 -389 1026 -209
564 -384 1029 -388 1033 -4 5 -21 -27 -37 -70z"/>
</g>
</svg>
